<?xml version="1.0" encoding="UTF-8" standalone="no" ?>
<!DOCTYPE svg PUBLIC "-//W3C//DTD SVG 1.1//EN" "http://www.w3.org/Graphics/SVG/1.1/DTD/svg11.dtd">
<svg xmlns="http://www.w3.org/2000/svg" xmlns:xlink="http://www.w3.org/1999/xlink" version="1.1" width="500" height="500" viewBox="0 0 500 500" xml:space="preserve">
<desc>Created with Fabric.js 5.3.0</desc>
<defs>
</defs>
<g transform="matrix(3.050515935 0 0 3.050515935 194.1327689415 339.6127904483)" id="FhzVZxwon2cZ6DHuoy0wO"  >
<path style="stroke: rgb(109,28,110); stroke-width: 0; stroke-dasharray: none; stroke-linecap: butt; stroke-dashoffset: 0; stroke-linejoin: miter; stroke-miterlimit: 4; fill: rgb(43,43,43); fill-rule: nonzero; opacity: 1;" vector-effect="non-scaling-stroke"  transform=" translate(0, 0)" d="M 0 -48.92601 C 27.00716 -48.92601 48.92602 -27.00716 48.92602 0 C 48.92602 27.00716 27.007160000000002 48.92601 0 48.92601 C -27.00716 48.92601 -48.92602 27.00716 -48.92602 0 C -48.92602 -27.00716 -27.007160000000002 -48.92601 0 -48.92601 z" stroke-linecap="round" />
</g>
<g transform="matrix(-1.1300048025 -0.6789753851 -0.6789753851 1.1300048025 338.6184940761 107.5036785858)" id="G3EY4abwllmGyDUVkAAJf"  >
<path style="stroke: rgb(9,104,224); stroke-width: 0; stroke-dasharray: none; stroke-linecap: butt; stroke-dashoffset: 0; stroke-linejoin: miter; stroke-miterlimit: 4; fill: rgb(43,43,43); fill-rule: nonzero; opacity: 1;" vector-effect="non-scaling-stroke"  transform=" translate(0, 0)" d="M -1.59109 -74.58234 L 1.59109 -74.58234 L 1.59109 74.58234 L -1.59109 74.58234 z" stroke-linecap="round" />
</g>
<g transform="matrix(-1.1300048024 -0.6789753851 -0.6789753851 1.1300048024 402.6793287104 171.5645132201)" id="8Pti8dTGTsSTHhB_O91DP"  >
<path style="stroke: rgb(9,104,224); stroke-width: 0; stroke-dasharray: none; stroke-linecap: butt; stroke-dashoffset: 0; stroke-linejoin: miter; stroke-miterlimit: 4; fill: rgb(43,43,43); fill-rule: nonzero; opacity: 1;" vector-effect="non-scaling-stroke"  transform=" translate(0, 0)" d="M -1.59109 -74.58234 L 1.59109 -74.58234 L 1.59109 74.58234 L -1.59109 74.58234 z" stroke-linecap="round" />
</g>
<g transform="matrix(-1.1300048024 -0.6789753851 -0.6789753851 1.1300048024 402.6793287104 220.3727681796)" id="kePC1BWlDVIzKIsVlZV_o"  >
<path style="stroke: rgb(9,104,224); stroke-width: 0; stroke-dasharray: none; stroke-linecap: butt; stroke-dashoffset: 0; stroke-linejoin: miter; stroke-miterlimit: 4; fill: rgb(43,43,43); fill-rule: nonzero; opacity: 1;" vector-effect="non-scaling-stroke"  transform=" translate(0, 0)" d="M -1.59109 -74.58234 L 1.59109 -74.58234 L 1.59109 74.58234 L -1.59109 74.58234 z" stroke-linecap="round" />
</g>
<g transform="matrix(-1.1300048024 -0.6789753851 -0.6789753851 1.1300048024 207.4463088722 92.2510989108)" id="UkOxGZApLBK64OEm_lkhy"  >
<path style="stroke: rgb(9,104,224); stroke-width: 0; stroke-dasharray: none; stroke-linecap: butt; stroke-dashoffset: 0; stroke-linejoin: miter; stroke-miterlimit: 4; fill: rgb(43,43,43); fill-rule: nonzero; opacity: 1;" vector-effect="non-scaling-stroke"  transform=" translate(0, 0)" d="M -1.59109 -74.58234 L 1.59109 -74.58234 L 1.59109 74.58234 L -1.59109 74.58234 z" stroke-linecap="round" />
</g>
<g transform="matrix(-1.1300048024 -0.6789753851 -0.6789753851 1.1300048024 283.7092072465 95.3016148458)" id="1PH4ABfIwowUDR_bjXYuj"  >
<path style="stroke: rgb(9,104,224); stroke-width: 0; stroke-dasharray: none; stroke-linecap: butt; stroke-dashoffset: 0; stroke-linejoin: miter; stroke-miterlimit: 4; fill: rgb(43,43,43); fill-rule: nonzero; opacity: 1;" vector-effect="non-scaling-stroke"  transform=" translate(0, 0)" d="M -1.59109 -74.58234 L 1.59109 -74.58234 L 1.59109 74.58234 L -1.59109 74.58234 z" stroke-linecap="round" />
</g>
</svg>