<?xml version="1.0" standalone="no"?>
<!DOCTYPE svg PUBLIC "-//W3C//DTD SVG 20010904//EN"
 "http://www.w3.org/TR/2001/REC-SVG-20010904/DTD/svg10.dtd">
<svg version="1.0" xmlns="http://www.w3.org/2000/svg"
 width="1280.000000pt" height="1232.000000pt" viewBox="0 0 1280.000000 1232.000000"
 preserveAspectRatio="xMidYMid meet">
<metadata>
Created by potrace 1.15, written by Peter Selinger 2001-2017
</metadata>
<g transform="translate(0.000000,1232.000000) scale(0.100000,-0.100000)"
fill="#000000" stroke="none">
<path d="M2507 12295 c-25 -18 -44 -24 -58 -20 -16 5 -63 -21 -195 -109 -96
-64 -174 -122 -174 -128 0 -7 26 -50 57 -96 37 -53 53 -86 46 -90 -6 -4 -200
-133 -432 -287 -272 -181 -421 -286 -421 -297 0 -9 253 -373 562 -810 2201
-3108 2630 -3714 2691 -3801 38 -54 75 -101 82 -103 7 -3 207 123 445 280 237
157 434 286 438 285 6 0 543 -757 565 -795 6 -10 -6 -29 -42 -64 l-51 -50
-138 0 c-126 0 -138 2 -150 20 -7 11 -23 20 -37 20 -14 0 -30 -9 -37 -20 -11
-16 -24 -20 -74 -20 -55 0 -64 3 -78 25 -19 29 -47 32 -70 9 -28 -27 -14 -194
28 -335 9 -29 15 -53 13 -55 -1 -1 -506 -337 -1122 -746 -3272 -2175 -4355
-2898 -4355 -2908 0 -14 238 -350 248 -350 4 0 22 10 41 21 l35 21 26 -33 c17
-19 33 -30 42 -27 8 3 63 38 122 77 59 39 111 71 114 71 4 0 156 -211 337
-468 182 -257 338 -468 347 -470 9 -2 857 556 1884 1240 2785 1852 2979 1982
2981 1998 2 8 -146 224 -327 480 -182 256 -330 468 -330 471 0 3 57 44 126 90
88 58 129 80 138 73 7 -5 44 -32 82 -61 90 -68 238 -144 343 -177 148 -47 241
-57 519 -59 l258 -2 916 -1295 c505 -712 1315 -1857 1802 -2545 487 -687 890
-1251 896 -1253 6 -2 29 8 51 23 25 16 47 24 59 20 23 -7 370 216 370 237 0 7
-36 65 -81 127 -60 85 -77 116 -67 122 97 57 963 647 963 656 0 7 -749 1070
-1665 2363 -1399 1976 -1667 2351 -1685 2348 -11 -3 -231 -145 -488 -317 -258
-172 -474 -314 -481 -317 -7 -3 -25 13 -40 36 -14 22 -22 40 -18 40 15 0 150
139 203 208 72 96 155 268 185 387 30 120 43 277 24 300 -19 23 -57 18 -76
-10 -14 -22 -23 -25 -75 -25 -53 0 -59 2 -71 28 -18 37 -52 40 -81 8 -16 -17
-35 -26 -54 -26 -26 0 -31 5 -42 40 -13 43 -34 60 -76 60 -38 0 -60 -15 -75
-50 l-12 -30 -176 0 c-96 0 -173 3 -170 6 3 3 1301 867 2884 1920 1584 1053
2883 1920 2888 1928 7 10 -24 60 -109 181 -64 91 -123 169 -131 172 -7 3 -27
-5 -45 -18 l-31 -22 -25 32 c-29 36 -44 38 -83 11 l-29 -20 -119 167 c-65 93
-200 283 -300 424 -100 141 -188 262 -196 268 -11 9 -498 -311 -2442 -1605
-1336 -888 -2430 -1622 -2432 -1630 -2 -7 132 -204 297 -438 166 -233 301
-428 301 -433 0 -4 -188 -133 -418 -285 -329 -219 -419 -275 -429 -265 -6 6
-917 1290 -2022 2852 -1106 1562 -2017 2841 -2023 2843 -7 1 -30 -9 -51 -23z"/>
</g>
</svg>
